<svg xmlns="http://www.w3.org/2000/svg" width="20.6" height="20.6" viewBox="0 0 20.6 20.6">
  <path id="Buy" d="M14.485,11.51h2.851a.789.789,0,0,0,0-1.577H14.485a.789.789,0,0,0,0,1.577Zm6.237-5.465a1.738,1.738,0,0,1,1.451.7,2.273,2.273,0,0,1,.391,1.807l-.978,6.9a2.645,2.645,0,0,1-2.6,2.3H7.754A2.645,2.645,0,0,1,5.14,15.3L4.193,3.837,2.639,3.564a.789.789,0,0,1,.268-1.555l2.455.377A.787.787,0,0,1,6,3.1l.2,2.355a.634.634,0,0,0,.628.59ZM7.589,19.415a1.593,1.593,0,1,0,1.554,1.6A1.581,1.581,0,0,0,7.589,19.415Zm11.579,0a1.593,1.593,0,1,0,1.554,1.6A1.581,1.581,0,0,0,19.168,19.415Z" transform="translate(-2 -2)" fill="#fff" fill-rule="evenodd"/>
</svg>
